<svg width="38" height="38" viewBox="0 0 38 38" fill="none" xmlns="http://www.w3.org/2000/svg">
<path d="M2.35437 18.8349V32.9612H18.835H35.3156V21.1893V9.41743H24.3678C14.5971 9.41743 13.4788 9.53515 13.7731 10.3592C13.9497 10.8889 14.1262 11.4187 14.1262 11.5364C14.1262 11.6541 18.3641 11.7718 23.5437 11.7718H32.9612V21.1893V30.6068H20.0122H7.06312V18.8349V7.06306H10.0649C12.5959 7.06306 13.0079 6.88648 12.7136 6.12131C12.537 5.59157 12.3605 5.06184 12.3605 4.94412C12.3605 4.8264 10.1238 4.70868 7.35742 4.70868H2.35437V18.8349Z" fill="black"/>
<path d="M14.7737 17.599C12.8313 19.5414 13.2433 21.0128 16.7749 24.6033L20.0122 27.9583L23.2494 24.6033C26.781 21.0128 27.193 19.5414 25.2507 17.599C24.3089 16.6573 23.6026 16.4807 22.4843 16.775C21.6014 16.9515 20.483 17.1281 20.0122 17.1281C19.5413 17.1281 18.423 16.9515 17.5401 16.775C16.4218 16.4807 15.7154 16.6573 14.7737 17.599Z" fill="black"/>
</svg>
