<?xml version="1.0" encoding="UTF-8"?>
<svg xmlns="http://www.w3.org/2000/svg" xmlns:xlink="http://www.w3.org/1999/xlink" width="75px" height="75px" viewBox="0 0 256 256" version="1.1">
<g id="surface1">
<path style=" stroke:none;fill-rule:evenodd;fill:rgb(100%,100%,100%);fill-opacity:1;" d="M 231 256 L 31 256 C 17.5 256 6.5 245 6.5 231.5 L 6.5 104.5 C 6.5 103 8 101 10 101 L 252 101 C 253.5 101 255.5 103 255.5 104.5 L 255.5 231.5 C 255.5 245 244.5 256 231 256 Z M 13.5 108 L 13.5 231.5 C 13.5 241 21.5 249 31 249 L 231 249 C 240.5 249 248.5 241 248.5 231.5 L 248.5 108 Z M 13.5 108 "/>
<path style=" stroke:none;fill-rule:evenodd;fill:rgb(100%,100%,100%);fill-opacity:1;" d="M 34.5 143 C 34 143 33 143 32.5 142.5 C 31 141.5 30.5 139.5 31.5 137.5 L 51.5 103 C 52.5 101.5 54.5 100.5 56 101.5 C 58 102.5 58.5 105 57.5 106.5 L 37.5 141 C 37 142.5 35.5 143 34.5 143 Z M 34.5 143 "/>
<path style=" stroke:none;fill-rule:evenodd;fill:rgb(100%,100%,100%);fill-opacity:1;" d="M 92 143 C 91.5 143 91 143 90.5 142.5 C 88.5 141.5 88 139.5 89 137.5 L 109 103 C 110 101.5 112 100.5 114 101.5 C 115.5 102.5 116 105 115 106.5 L 95 141 C 94.5 142.5 93.5 143 92 143 Z M 92 143 "/>
<path style=" stroke:none;fill-rule:evenodd;fill:rgb(100%,100%,100%);fill-opacity:1;" d="M 150 143 C 149 143 148.5 143 148 142.5 C 146.5 141.5 146 139.5 147 137.5 L 167 103 C 168 101.5 170 100.5 171.5 101.5 C 173.5 102.5 174 105 173 106.5 L 153 141 C 152 142.5 151 143 150 143 Z M 150 143 "/>
<path style=" stroke:none;fill-rule:evenodd;fill:rgb(100%,100%,100%);fill-opacity:1;" d="M 207.5 143 C 207 143 206.5 143 205.5 142.5 C 204 141.5 203.5 139.5 204.5 137.5 L 224.5 103 C 225.5 101.5 227.5 100.5 229.5 101.5 C 231 102.5 231.5 105 230.5 106.5 L 210.5 141 C 210 142.5 208.5 143 207.5 143 Z M 207.5 143 "/>
<path style=" stroke:none;fill-rule:evenodd;fill:rgb(100%,100%,100%);fill-opacity:1;" d="M 252 143 L 10 143 C 8 143 6.5 141.5 6.5 139.5 C 6.5 137.5 8 136 10 136 L 252 136 C 253.5 136 255.5 137.5 255.5 139.5 C 255.5 141.5 253.5 143 252 143 Z M 252 143 "/>
<path style=" stroke:none;fill-rule:evenodd;fill:rgb(100%,100%,100%);fill-opacity:1;" d="M 10 108 C 8.5 108 7 107 6.5 105.5 L 1.5 86.5 C 0 80 1 74 4 68.5 C 7 63 12 59 18 57.5 L 232.5 0 C 233 0 234 0 235 0.5 C 235.5 1 236.5 1.5 236.5 2.5 L 247 41.5 C 247.5 43 246.5 45 244.5 45.5 L 11 108 C 10.5 108 10.5 108 10 108 Z M 230.5 8 L 20 64 C 15.5 65.5 12 68 10 72 C 8 76 7 80 8.5 84.5 L 12.5 100.5 L 239 39.5 Z M 230.5 8 "/>
<path style=" stroke:none;fill-rule:evenodd;fill:rgb(100%,100%,100%);fill-opacity:1;" d="M 47.5 98 C 47.5 98 47 98 46.5 98 C 45 97.5 44 95.5 44.5 94 L 56 49 C 56.5 47 58.5 46 60.5 46.5 C 62.5 47 63.5 49 63 51 L 51 95.5 C 50.5 97 49 98 47.5 98 Z M 47.5 98 "/>
<path style=" stroke:none;fill-rule:evenodd;fill:rgb(100%,100%,100%);fill-opacity:1;" d="M 93 86 C 92.5 86 92.5 86 92 86 C 90 85.5 89 83.5 89.5 81.5 L 101.5 37 C 102 35 104 34 106 34.5 C 107.5 35 109 37 108.5 39 L 96.5 83.5 C 96 85 94.5 86 93 86 Z M 93 86 "/>
<path style=" stroke:none;fill-rule:evenodd;fill:rgb(100%,100%,100%);fill-opacity:1;" d="M 138.5 74 C 138 74 137.5 74 137.5 73.5 C 135.5 73 134.5 71.5 135 69.5 L 147 25 C 147.5 23 149.5 22 151 22.5 C 153 23 154 24.5 153.5 26.5 L 141.5 71.5 C 141.5 73 140 74 138.5 74 Z M 138.5 74 "/>
<path style=" stroke:none;fill-rule:evenodd;fill:rgb(100%,100%,100%);fill-opacity:1;" d="M 183.5 61.5 C 183.5 61.5 183 61.5 182.5 61.5 C 181 61 180 59 180.5 57.5 L 192 12.5 C 192.5 11 194.5 9.5 196.5 10 C 198.5 10.5 199.5 12.5 199 14.5 L 187 59 C 186.5 60.5 185 61.5 183.5 61.5 Z M 183.5 61.5 "/>
<path style=" stroke:none;fill-rule:evenodd;fill:rgb(100%,100%,100%);fill-opacity:1;" d="M 97 235.5 C 96 235.5 95.5 235.5 95 235 C 94 234.5 93.5 233.5 93.5 232 L 93.5 159.5 C 93.5 158.5 94 157.5 95 156.5 C 96 156 97.5 156 98.5 156.5 L 166.5 193 C 168 193.5 168.5 194.5 168.5 196 C 168.5 197.5 168 198.5 166.5 199 L 98.5 235.5 C 98 235.5 97.5 235.5 97 235.5 Z M 100.5 165.5 L 100.5 226.5 L 157.5 196 Z M 100.5 165.5 "/>
</g>
</svg>
