<?xml version="1.0" encoding="UTF-8" standalone="no" ?>
<!DOCTYPE svg PUBLIC "-//W3C//DTD SVG 1.1//EN" "http://www.w3.org/Graphics/SVG/1.1/DTD/svg11.dtd">
<svg xmlns="http://www.w3.org/2000/svg" xmlns:xlink="http://www.w3.org/1999/xlink" version="1.1" width="400" height="400" viewBox="0 0 400 400" xml:space="preserve">
<desc>Created with Fabric.js 3.6.2</desc>
<defs>
</defs>
<g transform="matrix(0.92 0 0 0.92 200 200)" id="Layer_1"  >
<path style="stroke: none; stroke-width: 1; stroke-dasharray: none; stroke-linecap: butt; stroke-dashoffset: 0; stroke-linejoin: miter; stroke-miterlimit: 4; fill: rgb(0,0,0); fill-rule: nonzero; opacity: 1;"  transform=" translate(-255.95, -255.95)" d="M 343.1 315 c -1.8 0.1 -3.5 0.1 -5.3 0.1 c -29.1 0 -56.5 -11.3 -77.1 -31.9 c -20.6 -20.6 -31.9 -48 -31.9 -77.1 c 0 -16.6 3.7 -32.6 10.6 -47.1 c 3.1 -6.4 6.8 -12.5 11.1 -18.2 c -7.6 0.8 -14.9 2.4 -22 4.6 c -46.8 14.8 -80.7 58.5 -80.7 110.2 c 0 63.8 51.7 115.5 115.5 115.5 c 35.3 0 66.8 -15.8 88 -40.7 c 4.8 -5.7 9.2 -11.9 12.8 -18.5 C 357.3 313.6 350.3 314.7 343.1 315 z M 263.3 355.1 c -54.9 0 -99.5 -44.6 -99.5 -99.5 c 0 -39.1 22.6 -72.9 55.4 -89.2 c -4.2 12.5 -6.4 25.8 -6.4 39.7 c 0 65.9 51 119.9 115.6 124.7 C 311 346 288.2 355.1 263.3 355.1 z" stroke-linecap="round" />
</g>
</svg>